PathFileType	4	(X/Y/Z)	c:/Users/goper/Files/vsCode/490R/osim_files/C03/C03_Static.trc
DataRate	CameraRate	NumFrames	NumMarkers	Units                	OrigDataRate	OrigDataStartFrame	OrigNumFrames
250.00	250.00	10	36	mm	250.0	1154	1538
                Frame#	Time	LPSIS			LASIS			LTH1			LTH2			LTH3			LTH4			LLFE			LMFE			LSH1			LSH2			LSH3			LSH4			LLMAL			LMMAL			LCAL			LMTP5			LTOE			LMTP1			RPSIS			RASIS			RTH1			RTH2			RTH3			RTH4			RLFE			RMFE			RSH1			RSH2			RSH3			RSH4			RLMAL			RMMAL			RCAL			RMTP1			RTOE			RMTP5		
		X1	Y1	Z1	X2	Y2	Z2	X3	Y3	Z3	X4	Y4	Z4	X5	Y5	Z5	X6	Y6	Z6	X7	Y7	Z7	X8	Y8	Z8	X9	Y9	Z9	X10	Y10	Z10	X11	Y11	Z11	X12	Y12	Z12	X13	Y13	Z13	X14	Y14	Z14	X15	Y15	Z15	X16	Y16	Z16	X17	Y17	Z17	X18	Y18	Z18	X19	Y19	Z19	X20	Y20	Z20	X21	Y21	Z21	X22	Y22	Z22	X23	Y23	Z23	X24	Y24	Z24	X25	Y25	Z25	X26	Y26	Z26	X27	Y27	Z27	X28	Y28	Z28	X29	Y29	Z29	X30	Y30	Z30	X31	Y31	Z31	X32	Y32	Z32	X33	Y33	Z33	X34	Y34	Z34	X35	Y35	Z35	X36	Y36	Z36

1154	4.61200	-403.03201	1038.92529	349.78537	-218.21606	970.50336	335.06354	-353.54050	640.32190	271.35989	-353.08499	578.34869	276.22171	-278.19449	635.96625	280.16299	-287.34723	575.19501	284.61340	-333.97449	486.50000	286.33459	-349.53979	478.30441	398.06268	-401.25433	307.46072	271.09787	-395.84164	261.38110	274.74713	-340.46503	311.99069	269.46957	-343.50232	264.14597	272.42859	-353.13049	99.17204	295.20975	-335.20319	108.48122	374.87842	-419.85379	63.09388	330.26743	-219.53711	51.09257	270.14001	-187.95131	67.59438	323.58313	-209.63562	54.84654	363.89456	-417.54495	1034.19019	458.50220	-252.19792	991.13654	541.66205	-389.41415	617.38312	568.24591	-390.94611	555.58557	559.02594	-330.22861	617.79254	594.76801	-321.65442	556.55048	591.92377	-326.27347	488.16141	579.62280	-328.34433	493.73465	465.16843	-421.92743	308.25320	593.80316	-419.06155	261.25006	596.63513	-362.58145	304.12375	612.51501	-369.01956	261.30917	613.36304	-375.83362	102.13967	601.94330	-354.10825	101.07131	523.39856	-441.83542	64.06396	556.83423	-233.94244	41.66753	542.32300	-210.53986	67.51010	589.12854	-270.80978	38.63764	646.40741
1155	4.61600	-403.01825	1038.93372	349.78101	-218.19037	970.50183	335.15021	-353.54816	640.32257	271.41223	-353.13419	578.44897	276.05780	-278.15295	635.98010	280.20987	-287.34628	575.22412	284.65991	-333.96387	486.51157	286.34988	-349.55280	478.30637	398.07019	-401.26443	307.45834	271.13464	-395.79938	261.40506	274.73404	-340.42618	312.02249	269.49179	-343.46005	264.16949	272.44830	-353.13922	99.18291	295.21844	-335.21417	108.46835	374.89316	-419.85226	63.06943	330.28955	-219.54111	51.09110	270.17053	-187.93967	67.59955	323.61728	-209.63481	54.82125	363.92923	-417.53311	1034.13867	458.51340	-252.25253	991.12122	541.74561	-389.40594	617.32727	568.28412	-390.93646	555.52759	559.04797	-330.23282	617.77173	594.76520	-321.67117	556.52765	591.96405	-326.29456	488.14871	579.65967	-328.34845	493.75916	465.20392	-421.89938	308.23236	593.83118	-419.03668	261.22037	596.65759	-362.60736	304.10648	612.53564	-369.01562	261.29099	613.37830	-375.82193	102.12711	601.94128	-354.09314	101.08218	523.40955	-441.81500	64.02843	556.88171	-233.91757	41.69947	542.33063	-210.51688	67.52859	589.13129	-270.81561	38.60285	646.42694
1156	4.62000	-403.01437	1038.95959	349.78137	-218.17023	970.49548	335.23694	-353.54886	640.33398	271.46176	-353.08768	578.38501	276.30157	-278.13528	636.00781	280.27670	-287.29160	575.22034	284.70425	-333.91739	486.53442	286.39023	-349.55356	478.28775	398.10095	-401.23779	307.48907	271.14456	-395.83240	261.38782	274.75272	-340.38397	312.03619	269.52191	-343.42316	264.20959	272.48831	-353.12851	99.18555	295.21774	-335.20596	108.45267	374.90469	-419.82956	63.05003	330.30856	-219.52631	51.07309	270.18494	-187.93405	67.56410	323.63339	-209.64062	54.79471	363.95871	-417.56668	1034.13123	458.53180	-252.31378	991.08710	541.83557	-389.40717	617.29376	568.32379	-390.81201	555.69843	560.12024	-330.28622	617.74237	594.80298	-321.76477	556.48120	591.98053	-326.33020	488.13531	579.69305	-328.29398	493.80157	465.21625	-421.86841	308.19763	593.85712	-419.01407	261.18765	596.68811	-362.62497	304.07208	612.56146	-369.04504	261.26202	613.40863	-375.82040	102.10474	601.96722	-354.08325	101.07764	523.42096	-441.81256	64.02340	556.90155	-233.90810	41.71417	542.34479	-210.51981	67.52103	589.13428	-270.84659	38.58004	646.43909
1157	4.62400	-402.99905	1038.96838	349.79785	-218.18410	970.47803	335.32187	-353.52219	640.32642	271.48587	-353.82678	578.17175	276.73160	-278.11157	636.00903	280.29272	-287.26782	575.24713	284.75116	-333.88593	486.54889	286.42908	-349.55582	478.27838	398.11780	-401.21387	307.50201	271.13422	-395.81934	261.40903	274.75351	-340.34677	312.04904	269.53061	-343.40610	264.21033	272.50159	-353.12811	99.19832	295.22253	-335.24161	108.42820	374.94128	-419.82437	63.01643	330.34244	-219.53612	51.07846	270.19473	-187.94250	67.56197	323.66104	-209.68381	54.76152	363.99084	-417.59726	1034.11133	458.55212	-252.39786	991.06177	541.92102	-389.43774	617.27692	568.37622	-390.99066	555.39929	559.27783	-330.35840	617.71350	594.84277	-321.78604	556.44385	592.03381	-326.37131	488.12250	579.71893	-328.29068	493.83405	465.24637	-421.89304	308.17972	593.88501	-419.01175	261.17377	596.70605	-362.66061	304.04486	612.59033	-369.06161	261.24100	613.42999	-375.82956	102.09297	601.99768	-354.08853	101.09850	523.42084	-441.79752	64.01921	556.91638	-233.87161	41.74397	542.34412	-210.51054	67.54262	589.13837	-270.89844	38.55640	646.45825
1158	4.62800	-402.95505	1038.95447	349.79755	-218.19710	970.46942	335.39270	-353.49112	640.33527	271.52280	-353.05621	578.37933	276.36069	-278.08914	636.02490	280.31845	-287.24185	575.27600	284.76520	-333.85101	486.56421	286.44180	-349.55231	478.27347	398.13107	-401.20016	307.48941	271.14343	-395.75894	261.39261	274.74548	-340.35980	312.04971	269.53958	-343.38763	264.24527	272.50238	-353.11230	99.21038	295.22119	-335.26440	108.42351	374.95605	-419.82367	63.00265	330.37106	-219.56656	51.04784	270.21909	-187.93622	67.55400	323.69003	-209.71758	54.72150	364.01736	-417.64041	1034.11304	458.57227	-252.46004	991.05432	542.00183	-389.44656	617.22992	568.42310	-391.02945	555.35675	559.37653	-330.42587	617.69464	594.88391	-321.89072	556.42230	592.05103	-326.39020	488.11761	579.74768	-328.25992	493.86490	465.24701	-421.90955	308.16962	593.90997	-419.02374	261.14371	596.72937	-362.68564	304.04260	612.60840	-369.09637	261.22928	613.44360	-375.85303	102.08810	601.99579	-354.10986	101.11092	523.40717	-441.82962	63.98822	556.93823	-233.86504	41.74366	542.33722	-210.50281	67.55848	589.13788	-270.92657	38.54467	646.46454
1159	4.63200	-402.93335	1038.95813	349.82877	-218.20288	970.46729	335.46765	-353.44119	640.33661	271.55396	-353.78671	578.15326	276.75046	-278.06406	636.04993	280.35455	-287.22983	575.27234	284.80798	-333.82562	486.57507	286.46158	-349.53189	478.28824	398.17020	-401.16391	307.48434	271.15625	-395.76022	261.40475	274.74680	-340.32117	312.06226	269.55658	-343.37500	264.23898	272.50113	-353.14291	99.20797	295.23422	-335.27957	108.42632	374.96722	-419.85083	63.00360	330.40109	-219.59100	51.04830	270.22806	-187.96446	67.54987	323.69711	-209.74234	54.71759	364.02161	-417.65652	1034.12415	458.58942	-252.51741	991.05359	542.07159	-389.49350	617.21307	568.46570	-390.93924	555.31305	559.44330	-330.50070	617.69403	594.89960	-321.91721	556.45166	592.07666	-326.42493	488.11584	579.78558	-328.29855	493.87399	465.25085	-421.94440	308.16663	593.91785	-419.03812	261.15985	596.73462	-362.72427	304.03412	612.63177	-369.14346	261.23151	613.48578	-375.87897	102.09999	602.01257	-354.09833	101.11174	523.41553	-441.82748	63.97361	556.93677	-233.87651	41.75525	542.33466	-210.50040	67.56047	589.14374	-270.93155	38.53561	646.48981
1160	4.63600	-402.92908	1038.94641	349.83383	-218.19342	970.47729	335.51898	-353.39981	640.32263	271.57672	-353.90662	578.06091	276.71106	-278.07458	636.03577	280.40280	-287.23871	575.26086	284.84958	-333.82986	486.57645	286.49255	-349.58182	478.30017	398.20154	-401.14041	307.47833	271.16269	-395.70990	261.39365	274.73926	-340.33286	312.06583	269.58633	-343.38705	264.22830	272.52667	-353.15106	99.20714	295.20676	-335.26901	108.43777	374.97803	-419.83502	63.00246	330.39035	-219.58667	51.05097	270.22165	-187.97232	67.54398	323.68668	-209.73190	54.75130	364.00598	-417.68448	1034.11035	458.61978	-252.56921	991.06830	542.11133	-389.50098	617.18695	568.49298	-391.01196	555.34460	559.43225	-330.52213	617.72461	594.95239	-321.96902	556.45825	592.12354	-326.43173	488.12793	579.79218	-328.33435	493.87033	465.27975	-421.93408	308.15591	593.93060	-419.05551	261.15253	596.74371	-362.73975	304.04086	612.63721	-369.14755	261.22748	613.48407	-375.89322	102.10311	602.01514	-354.09766	101.10658	523.42267	-441.81467	63.95945	556.93372	-233.88672	41.74396	542.32471	-210.52354	67.56155	589.14496	-270.91516	38.55195	646.48798
1161	4.64000	-402.91974	1038.91931	349.87140	-218.19009	970.48883	335.56564	-353.37881	640.31982	271.61954	-353.00391	578.42603	276.22540	-278.05655	636.03314	280.44397	-287.22452	575.27783	284.89038	-333.84241	486.57834	286.51505	-349.60110	478.31839	398.23285	-401.12607	307.46042	271.15643	-395.69626	261.41672	274.74677	-340.32144	312.08179	269.57538	-343.38147	264.23636	272.51660	-353.17145	99.21446	295.20349	-335.28860	108.44418	374.96597	-419.83401	63.00299	330.37296	-219.59665	51.05864	270.21320	-187.98512	67.55362	323.67007	-209.72684	54.77333	363.98807	-417.25616	1033.86450	458.65839	-252.60315	991.08746	542.16980	-389.52185	617.18207	568.51038	-391.00320	555.35022	559.42383	-330.56131	617.75507	594.96942	-321.96231	556.49408	592.14105	-326.46606	488.13187	579.80804	-328.39359	493.86755	465.29099	-421.95889	308.14413	593.92279	-419.07129	261.14886	596.73309	-362.75510	304.05460	612.63776	-369.15125	261.24197	613.47638	-375.92557	102.12743	602.01288	-354.13065	101.11949	523.42029	-441.82837	63.94395	556.92871	-233.94197	41.74818	542.31531	-210.54884	67.54893	589.14093	-270.92810	38.56345	646.48419
1162	4.64400	-402.91537	1038.91064	349.91849	-218.14847	970.54181	335.59305	-353.36484	640.30969	271.65005	-352.96585	578.35712	276.45096	-278.06479	636.04010	280.48645	-287.22800	575.25818	284.91736	-333.83685	486.58197	286.53564	-349.62595	478.34705	398.27090	-401.09103	307.44150	271.14917	-395.72464	261.39038	274.75635	-340.34290	312.08090	269.59274	-343.37256	264.24829	272.53470	-353.17612	99.21379	295.21115	-335.27859	108.49738	374.94931	-419.83322	62.98664	330.35977	-219.60306	51.07310	270.18973	-187.98369	67.57137	323.65488	-209.71237	54.81601	363.96082	-417.75854	1034.08362	458.63940	-252.63712	991.12781	542.21387	-389.56381	617.18768	568.50507	-391.03662	555.35541	559.28796	-330.58826	617.78052	594.98462	-321.97147	556.55212	592.17218	-326.47107	488.15976	579.81024	-328.46979	493.83664	465.32657	-421.98111	308.14374	593.90601	-419.13232	261.15598	596.70337	-362.75986	304.09235	612.62964	-369.14459	261.26526	613.47308	-375.94626	102.15206	602.00049	-354.16400	101.11717	523.40973	-441.83731	63.93648	556.90454	-233.96898	41.75245	542.31195	-210.58568	67.55149	589.13873	-270.92636	38.59827	646.46503
1163	4.64800	-402.91177	1038.90979	349.92502	-218.16516	970.55127	335.65332	-353.35562	640.30194	271.69946	-352.95020	578.35004	276.49231	-278.03534	636.03784	280.52765	-287.23077	575.25165	284.96646	-333.81824	486.57516	286.56921	-349.63840	478.36050	398.28174	-401.08786	307.47064	271.17630	-395.66473	261.43100	274.73819	-340.33002	312.08698	269.58713	-343.39194	264.23837	272.52548	-353.20584	99.21571	295.21240	-335.29037	108.51076	374.95120	-419.86771	63.04416	330.30502	-219.61589	51.08717	270.17468	-188.01151	67.57978	323.63596	-209.71138	54.83774	363.95068	-417.80133	1034.10669	458.65393	-252.67867	991.15839	542.25403	-389.61188	617.18628	568.49933	-391.09555	555.39124	559.19525	-330.62283	617.82605	595.01801	-322.02850	556.57587	592.17590	-326.50189	488.17099	579.83447	-328.53143	493.85260	465.34027	-421.98663	308.13312	593.90381	-419.12802	261.14099	596.69592	-362.78952	304.11353	612.63422	-369.16061	261.27997	613.47614	-375.97134	102.17461	602.00452	-354.16177	101.12733	523.42084	-441.84082	64.00621	556.84290	-234.01787	41.74135	542.31262	-210.58763	67.56586	589.14832	-270.93240	38.60939	646.47406
